HIERARCHY
ROOT joint_Root
{
	OFFSET 0.0 0.0 0.0
	CHANNELS 6 Xposition Yposition Zposition Zrotation Xrotation Yrotation 
	JOINT Hips
	{
		OFFSET 4.5925 91.4895 -427.239
		CHANNELS 6 Xposition Yposition Zposition Zrotation Xrotation Yrotation 
		JOINT Spine
		{
			OFFSET 15.7357 0.0 0.0
			CHANNELS 6 Xposition Yposition Zposition Zrotation Xrotation Yrotation 
			JOINT Chest
			{
				OFFSET 8.98455 -0.406207 0.0
				CHANNELS 6 Xposition Yposition Zposition Zrotation Xrotation Yrotation 
				JOINT Neck
				{
					OFFSET 16.3773 0.0 0.0
					CHANNELS 6 Xposition Yposition Zposition Zrotation Xrotation Yrotation 
					JOINT Head
					{
						OFFSET 6.45672 0.0 0.0
						CHANNELS 6 Xposition Yposition Zposition Zrotation Xrotation Yrotation 
						End Site
						{
							OFFSET 0.0 0.0 0.0
						}
					}
				}
				JOINT Shoulder_L
				{
					OFFSET 12.9942 -0.242716 4.98039
					CHANNELS 6 Xposition Yposition Zposition Zrotation Xrotation Yrotation 
					JOINT UpperArm_L
					{
						OFFSET 5.34809 0.0 0.0
						CHANNELS 6 Xposition Yposition Zposition Zrotation Xrotation Yrotation 
						JOINT LowerArm_L
						{
							OFFSET 24.3286 1.87007e-05 0.0
							CHANNELS 6 Xposition Yposition Zposition Zrotation Xrotation Yrotation 
							JOINT Hand_L
							{
								OFFSET 22.2916 0.0 0.0
								CHANNELS 6 Xposition Yposition Zposition Zrotation Xrotation Yrotation 
								End Site
								{
									OFFSET 0.0 0.0 0.0
								}
							}
						}
					}
				}
				JOINT Shoulder_R
				{
					OFFSET 12.9945 -0.242716 -4.98039
					CHANNELS 6 Xposition Yposition Zposition Zrotation Xrotation Yrotation 
					JOINT UpperArm_R
					{
						OFFSET -5.34813 0.0 0.0
						CHANNELS 6 Xposition Yposition Zposition Zrotation Xrotation Yrotation 
						JOINT LowerArm_R
						{
							OFFSET -24.3289 0.000322201 0.0
							CHANNELS 6 Xposition Yposition Zposition Zrotation Xrotation Yrotation 
							JOINT Hand_R
							{
								OFFSET -22.2915 -0.000108084 0.0
								CHANNELS 6 Xposition Yposition Zposition Zrotation Xrotation Yrotation 
								End Site
								{
									OFFSET 0.0 0.0 0.0
								}
							}
						}
					}
				}
			}
		}
		JOINT UpperLeg_L
		{
			OFFSET -2.19248 -6.46944 0.0
			CHANNELS 6 Xposition Yposition Zposition Zrotation Xrotation Yrotation 
			JOINT LowerLeg_L
			{
				OFFSET 39.0811 0.0 -1.23785e-05
				CHANNELS 6 Xposition Yposition Zposition Zrotation Xrotation Yrotation 
				JOINT Foot_L
				{
					OFFSET 40.9854 0.0 -1.26872e-05
					CHANNELS 6 Xposition Yposition Zposition Zrotation Xrotation Yrotation 
					JOINT Toes_L
					{
						OFFSET 11.7543 0.0 0.0
						CHANNELS 6 Xposition Yposition Zposition Zrotation Xrotation Yrotation 
						End Site
						{
							OFFSET 0.0 0.0 0.0
						}
					}
				}
			}
		}
		JOINT UpperLeg_R
		{
			OFFSET -2.19251 6.46944 0.0
			CHANNELS 6 Xposition Yposition Zposition Zrotation Xrotation Yrotation 
			JOINT LowerLeg_R
			{
				OFFSET -39.0811 -0.00228153 -0.0401928
				CHANNELS 6 Xposition Yposition Zposition Zrotation Xrotation Yrotation 
				JOINT Foot_R
				{
					OFFSET -40.9854 0.0 0.0
					CHANNELS 6 Xposition Yposition Zposition Zrotation Xrotation Yrotation 
					JOINT Toes_R
					{
						OFFSET -11.7543 0.0 0.0
						CHANNELS 6 Xposition Yposition Zposition Zrotation Xrotation Yrotation 
						End Site
						{
							OFFSET 0.0 0.0 0.0
						}
					}
				}
			}
		}
	}
}
MOTION
Frames:	4
Frame Time:	0.0333333
0.000000 0.000000 0.000000 0.000000 0.000000 -0.000000 3.170420 91.075100 29.859700 -90.319600 -0.898549 175.617000 15.735700 0.000005 -0.000001 33.329500 81.480900 -32.502600 8.984550 -0.406207 -0.000000 1.756490 -14.271300 1.878720 16.377300 -0.000001 -0.000001 -6.572910 -5.558570 4.996770 6.456720 -0.000001 -0.000000 -13.570200 2.541340 5.927380 12.994200 -0.242716 4.980390 -88.241200 -6.832740 -75.525300 5.348090 -0.000007 -0.000001 -59.326800 45.066200 -28.274500 24.328600 0.000019 0.000005 15.501900 -9.244180 -120.082000 22.291600 -0.000001 0.000005 2.158160 5.326320 -0.678334 12.994500 -0.242716 -4.980390 90.831900 -2.323100 -70.285200 -5.348130 -0.000001 -0.000004 -72.991800 41.200500 15.851800 -24.328900 0.000322 -0.000009 -14.144300 6.385880 -113.814000 -22.291500 -0.000108 -0.000004 8.921720 5.469870 -5.364490 -2.192480 -6.469440 -0.000000 -176.849000 -6.285520 8.191420 39.081100 -0.000007 -0.000012 0.095815 -0.094723 45.327600 40.985400 -0.000006 -0.000013 10.543100 -14.606300 -48.369500 11.754300 -0.000000 0.000003 -0.008014 -0.088153 -20.166500 -2.192510 6.469440 -0.000001 -176.140000 8.664260 150.129000 -39.081100 -0.002282 -0.040193 -0.060839 0.122171 27.701900 -40.985400 0.000008 0.000006 -3.716460 8.380140 -68.689500 -11.754300 -0.000006 -0.000006 -0.022372 -0.180089 -23.935600
0.000000 0.000000 0.000000 0.000000 0.000000 -0.000000 3.699660 88.971600 21.555900 -89.462400 0.345362 176.846000 15.735700 0.000005 -0.000001 40.063300 81.933300 -38.850400 8.984550 -0.406207 -0.000000 2.809980 -12.388900 2.735550 16.377300 -0.000001 -0.000001 -5.677180 -5.716910 5.335430 6.456720 -0.000001 -0.000000 -14.634600 1.637520 6.145240 12.994200 -0.242716 4.980390 -89.220000 -2.813750 -74.494400 5.348090 -0.000007 -0.000001 -53.749900 46.836100 -27.923400 24.328600 0.000019 0.000005 9.929910 -6.341620 -122.250000 22.291600 -0.000001 0.000005 2.064670 5.377620 -2.231180 12.994500 -0.242716 -4.980390 89.644400 0.937203 -69.233100 -5.348130 -0.000001 -0.000004 -65.445000 42.312600 9.518640 -24.328900 0.000322 -0.000009 -15.668100 7.729570 -115.618000 -22.291500 -0.000108 -0.000004 9.123510 5.479560 -5.731340 -2.192480 -6.469440 -0.000000 -176.555000 -6.055500 6.002680 39.081100 -0.000007 -0.000012 0.030906 -0.017806 60.044900 40.985400 -0.000006 -0.000013 11.982700 -15.629100 -47.302600 11.754300 -0.000000 0.000003 -0.007079 -0.080352 -19.848000 -2.192510 6.469440 -0.000001 -173.039000 11.048000 148.735000 -39.081100 -0.002282 -0.040193 0.076059 -0.100215 35.985000 -40.985400 0.000008 0.000006 6.692110 1.113510 -62.528700 -11.754300 -0.000006 -0.000006 -0.023922 -0.188116 -24.267000
0.000000 0.000000 0.000000 0.000000 0.000000 -0.000000 4.207090 85.894700 13.371700 -88.888100 1.515640 178.452000 15.735700 0.000005 -0.000001 47.964700 82.421300 -46.454500 8.984550 -0.406207 -0.000000 3.677530 -10.190400 3.351200 16.377300 -0.000001 -0.000001 -4.653320 -5.461490 4.842050 6.456720 -0.000001 -0.000000 -13.684300 0.224898 6.483100 12.994200 -0.242716 4.980390 -90.135300 0.475959 -74.141900 5.348090 -0.000007 -0.000001 -56.268800 45.908100 -20.025500 24.328600 0.000019 0.000005 6.288720 -3.857900 -121.408000 22.291600 -0.000001 0.000005 0.759684 5.417520 -3.513000 12.994500 -0.242716 -4.980390 88.231400 4.815480 -69.791200 -5.348130 -0.000001 -0.000004 -57.232100 41.580100 3.358470 -24.328900 0.000322 -0.000009 -16.894700 8.970730 -117.175000 -22.291500 -0.000108 -0.000004 9.329290 5.486500 -5.995580 -2.192480 -6.469440 -0.000000 -175.877000 -6.886880 1.274550 39.081100 -0.000007 -0.000012 -0.004205 0.000912 77.855700 40.985400 -0.000006 -0.000013 9.587530 -13.228300 -48.285800 11.754300 -0.000000 0.000003 -0.006609 -0.076283 -19.681900 -2.192510 6.469440 -0.000001 -173.345000 8.352470 148.606000 -39.081100 -0.002282 -0.040193 -0.203673 0.170694 50.479800 -40.985400 0.000008 0.000006 9.192010 -2.020090 -71.661200 -11.754300 -0.000006 -0.000006 -0.003703 -0.048317 -18.538400
0.000000 0.000000 0.000000 0.000000 0.000000 -0.000000 4.788600 83.470900 6.155080 -86.703200 3.225230 179.921000 15.735700 0.000005 -0.000001 61.199000 82.363700 -58.728700 8.984550 -0.406207 -0.000000 5.819420 -7.381580 5.316270 16.377300 -0.000001 -0.000001 -5.787000 -4.295740 3.466170 6.456720 -0.000001 -0.000000 -12.634200 -1.335010 7.187910 12.994200 -0.242716 4.980390 -90.830100 2.797070 -73.462900 5.348090 -0.000007 -0.000001 -63.876700 41.464000 -9.304510 24.328600 0.000019 0.000005 8.692200 -3.919870 -114.124000 22.291600 -0.000001 0.000005 2.507130 5.440110 -4.297000 12.994500 -0.242716 -4.980390 86.930800 9.625360 -72.218500 -5.348130 -0.000001 -0.000004 -48.283900 38.591800 -4.653640 -24.328900 0.000322 -0.000009 -19.063400 9.606340 -115.778000 -22.291500 -0.000108 -0.000004 9.866820 5.512790 -7.057050 -2.192480 -6.469440 -0.000000 -174.391000 -7.949530 -6.717220 39.081100 -0.000007 -0.000012 -0.079018 -0.006678 94.837900 40.985400 -0.000006 -0.000013 10.399700 -11.870900 -48.110400 11.754300 -0.000000 0.000003 -0.006496 -0.075282 -19.641100 -2.192510 6.469440 -0.000001 -171.242000 7.077760 152.312000 -39.081100 -0.002282 -0.040193 0.158583 -0.098171 57.713300 -40.985400 0.000008 0.000006 11.658200 -4.501940 -80.562000 -11.754300 -0.000006 -0.000006 -0.000304 -0.004972 -16.775700
